<svg width="153" height="40" viewBox="0 0 153 40" fill="none" xmlns="http://www.w3.org/2000/svg">
<g clip-path="url(#clip0_1_1175)">
<path d="M5.54447 0.164157C5.46172 0.246292 5.87546 0.739106 6.45469 1.31405L7.53041 2.29968H6.04095C4.79974 2.29968 4.46875 2.38182 4.46875 2.54609C4.46875 2.79249 4.79974 2.79249 6.28919 2.79249H8.10964L14.5639 8.78839L21.0182 14.7843L19.8598 16.0163C19.115 16.7555 18.7841 17.1662 18.9496 17.3305C19.1978 17.4948 19.5288 17.3305 20.6872 16.1806L21.5975 15.3592L22.5904 16.3449C23.5007 17.2483 23.9971 17.4948 23.9971 17.0841C23.9971 16.9198 23.5007 16.427 22.9214 15.9342L21.8457 15.0307L28.1345 9.03479L34.3406 3.0389L35.9955 2.95676C37.154 2.95676 37.7332 2.79249 37.816 2.62822C37.8987 2.46395 37.485 2.38182 36.4093 2.38182H35.0026L35.83 1.56046C37.0712 0.328428 36.5748 0.164157 35.168 1.39619L34.0096 2.38182H21.1837H8.44063L7.11667 1.14978C5.79271 -0.0822497 5.70996 -0.164385 5.54447 0.164157Z" fill="#333333"/>
<path d="M2.06938 5.17462V6.48879L1.2419 5.66744C0.74542 5.17462 0.41443 4.92822 0.331683 5.09249C0.166188 5.25676 0.910915 6.32452 1.65564 6.98161C2.06938 7.39228 2.06938 7.39228 2.06938 20.2054V33.1007L0.993663 34.1685C0.248936 34.8255 -0.0820541 35.3184 0.000693363 35.4005C0.166188 35.5648 0.497178 35.3184 1.07641 34.6613L1.98663 33.7578L2.06938 35.3184C2.06938 36.304 2.23487 36.8789 2.40037 36.9611C2.56586 37.0432 2.64861 36.5504 2.64861 35.2362V33.4292L6.86873 29.3225C9.18566 27.0227 12.0818 24.2301 13.2403 23.0802L15.3917 21.0268L16.4674 22.0945C17.5431 23.0802 17.9569 23.4087 17.9569 22.9159C17.9569 22.7516 17.4604 22.2588 16.8812 21.6017L15.8055 20.534L16.8812 19.4662C17.5431 18.8091 17.9569 18.3163 17.7914 18.152C17.7086 17.9878 17.2949 18.3163 16.5502 19.0555L15.3917 20.2054L8.93742 13.6346L2.48312 7.06374V5.42103C2.48312 4.10686 2.40037 3.77832 2.23487 3.77832C2.15213 3.77832 2.06938 4.10686 2.06938 5.17462Z" fill="#333333"/>
<path d="M118.495 4.10675C117.585 4.4353 117.502 4.59957 118.164 5.42092C119.653 7.55645 123.708 7.2279 124.618 4.84597C124.784 4.35316 124.784 4.35316 124.039 4.18889C123.625 4.02462 123.211 3.94248 123.046 3.86035C122.88 3.77821 122.798 3.86035 122.798 4.02462C122.798 4.4353 121.887 5.09238 121.225 5.09238C120.563 5.09238 119.653 4.51743 119.653 4.10675C119.571 3.77821 119.488 3.77821 118.495 4.10675Z" fill="#333333"/>
<path d="M35.6643 9.03504V11.0884L22.673 23.7373L9.68164 36.3862H7.8612C6.289 36.3862 5.95801 36.4683 5.95801 36.6326C5.95801 36.7968 6.289 36.879 7.61296 36.879H9.26791L8.02669 38.111C7.19922 38.9324 6.86823 39.4252 6.95098 39.5073C7.11647 39.5895 7.6957 39.0966 8.60593 38.2753L10.0954 36.879L22.9212 37.0433C29.9548 37.1254 35.7471 37.2075 35.7471 37.2075C35.7471 37.2075 35.8298 37.8646 35.9126 38.686C35.9953 40.4929 36.4091 40.4108 36.4918 38.5217L36.5746 37.1254L37.9813 37.0433C39.057 37.0433 39.388 36.9611 39.388 36.7147C39.388 36.4683 39.057 36.3862 37.9813 36.3862H36.4091V27.8441C36.4091 23.1624 36.3263 17.495 36.2436 15.2773L36.1608 11.2527L37.5675 9.8564C38.6432 8.87077 38.9742 8.37796 38.8915 8.21369C38.8087 7.96728 38.5605 8.13155 37.4848 9.19931L36.1608 10.4313V8.62436C36.1608 7.14592 36.0781 6.81738 35.9126 6.81738C35.7471 6.89952 35.6643 7.3102 35.6643 9.03504ZM35.6643 24.2301V36.3862H23.1695H10.6746L23.0867 24.2301C29.872 17.495 35.4988 12.0741 35.5816 12.0741C35.6643 12.0741 35.6643 17.5771 35.6643 24.2301Z" fill="#333333"/>
<path d="M48.4076 8.13116C47.8284 8.37756 47.2492 8.62397 47.2492 8.62397C47.1664 8.70611 49.5661 15.5234 49.8971 16.1804C50.2281 16.8375 50.8073 17.2482 51.7175 17.5767L52.545 17.8232L52.0485 18.316C51.552 18.8088 51.4693 18.8088 50.4763 18.7266L49.4006 18.5624L49.2351 19.548C49.1524 20.1229 49.1524 20.6158 49.1524 20.6979C49.4006 20.9443 51.7175 20.9443 52.3795 20.78C53.2897 20.5336 54.1999 19.8765 54.5309 19.1373C54.8619 18.5624 58.3373 8.87038 58.3373 8.62397C58.3373 8.4597 56.0204 7.72048 55.8549 7.80262C55.8549 7.80262 55.1929 9.52746 54.5309 11.663C53.869 13.7164 53.207 15.4412 53.1242 15.5234C53.0415 15.6055 52.876 15.6055 52.6277 15.5234C52.3795 15.4412 51.9658 14.5377 50.9728 11.663C50.3108 9.6096 49.6488 7.88475 49.6488 7.80262C49.6488 7.72048 48.9869 7.88475 48.4076 8.13116Z" fill="#333333"/>
<path d="M71.5764 8.04922C69.3423 8.54204 67.6873 10.0205 67.0253 12.156C66.6943 13.1416 66.6943 13.7166 66.6943 15.1129C66.8598 17.9055 67.8528 19.5482 70.0042 20.5338C70.9145 20.9445 71.2454 21.0266 73.1486 21.0266C74.8863 21.0266 75.4656 20.9445 76.3758 20.616C76.955 20.3696 77.5343 20.1231 77.617 20.041C77.7825 19.8767 77.286 18.4804 77.0378 18.1519C76.955 18.0698 76.4585 18.1519 75.7966 18.3983C73.2314 19.3018 70.9145 18.809 70.0042 17.0841C69.5905 16.3449 69.5078 16.0164 69.5078 14.5379C69.5078 12.9774 69.5905 12.7309 70.0042 11.9917C70.749 10.7597 71.7419 10.2669 73.3969 10.2669C74.1416 10.2669 75.1346 10.4312 75.7138 10.5954L76.7895 10.924L77.1205 9.93834C77.3688 9.36339 77.4515 8.87058 77.3688 8.78844C76.7895 8.13136 73.1486 7.72068 71.5764 8.04922Z" fill="#333333"/>
<path d="M105.834 8.04886C104.096 8.54167 102.938 9.60943 102.11 11.4164C101.779 12.1556 101.696 12.6484 101.696 14.2912C101.696 16.7552 102.027 17.823 103.186 19.1372C104.427 20.4513 105.503 20.862 107.82 20.9441C109.475 20.9441 109.806 20.862 110.716 20.4513C111.957 19.8764 112.784 18.9729 113.446 17.5766C113.86 16.6731 113.943 16.3445 113.943 14.5376C113.943 13.0591 113.86 12.2378 113.612 11.5807C113.115 10.2665 111.874 8.95235 110.633 8.3774C109.392 7.88459 107.075 7.72031 105.834 8.04886ZM109.723 10.6772C110.054 10.9236 110.468 11.4164 110.716 11.8271C111.129 12.4842 111.212 12.8127 111.212 14.3733C111.212 15.9339 111.129 16.2624 110.716 16.9195C109.971 18.2337 109.475 18.4801 107.82 18.4801C106.744 18.4801 106.33 18.3979 105.916 18.0694C105.006 17.4123 104.51 16.2624 104.427 14.784C104.261 12.6484 104.923 11.0879 106.247 10.4308C107.075 10.1022 108.978 10.1844 109.723 10.6772Z" fill="#333333"/>
<path d="M136.451 8.13131C135.954 8.37771 135.458 9.0348 134.465 10.5132C132.893 12.8952 132.479 13.388 131.982 13.388C131.651 13.388 131.651 13.3058 131.651 10.7596V8.04917H130.245H128.838V14.4557V20.8623H130.245H131.651V18.234V15.6056H132.148C132.644 15.6056 132.975 16.0163 135.044 18.3161C136.368 19.7945 137.526 21.0266 137.609 21.0266C137.775 21.0266 139.264 19.7945 139.43 19.5481C139.43 19.466 138.519 18.234 137.278 16.7555L135.044 14.1272L136.368 12.2381C137.444 10.6775 137.857 10.2668 138.271 10.1026C138.768 9.93829 138.85 9.85615 139.016 9.0348C139.099 8.54198 139.099 8.13131 139.016 8.04917C138.685 7.80276 137.113 7.8849 136.451 8.13131Z" fill="#333333"/>
<path d="M144.973 8.21368C144.477 8.46009 143.98 8.87076 143.815 9.19931C143.649 9.52785 142.739 12.074 141.911 14.8667C141.001 17.6593 140.257 20.0412 140.257 20.2055C140.174 20.3697 140.588 20.534 141.332 20.6983C141.994 20.8626 142.573 20.9447 142.656 20.9447C142.739 20.9447 143.07 20.1233 143.401 19.1377L143.98 17.2486L146.545 17.1665L149.111 17.0843L149.607 18.9734C149.938 19.9591 150.186 20.8625 150.269 20.8625C150.352 20.9447 152.751 20.4519 152.834 20.3697C152.917 20.2876 149.69 9.93853 149.276 9.19931C148.78 7.88514 146.628 7.47446 144.973 8.21368ZM147.042 10.2671C147.125 10.4313 147.538 11.4991 147.869 12.7311L148.531 14.9488L147.621 15.0309C147.125 15.0309 146.297 15.0309 145.718 15.0309L144.725 14.9488L145.47 12.649C146.132 10.1849 146.463 9.69212 147.042 10.2671Z" fill="#333333"/>
<path d="M79.1064 9.11659V10.1844L81.0096 10.2665L82.9128 10.3486L82.9956 15.6053V20.862H84.3195H85.6435V15.5232V10.1844H87.6294H89.6154V9.11659V8.04883H84.4023H79.1892V9.11659H79.1064Z" fill="#333333"/>
<path d="M90.7744 14.4554V20.862H92.0984H93.4223V18.6443V16.4267H94.9118C96.8977 16.4267 98.1389 16.016 99.1319 15.1125C100.456 13.7983 100.704 11.8271 99.7939 10.1022C98.9664 8.45951 97.6425 8.04883 93.6706 8.04883H90.8572V14.4554H90.7744ZM97.0632 10.8414C97.5597 11.4164 97.6425 12.7306 97.3115 13.3876C96.9805 13.9626 95.9875 14.2911 94.6635 14.2911H93.4223V12.2377V10.1844L94.9945 10.2665C96.484 10.3486 96.6495 10.3486 97.0632 10.8414Z" fill="#333333"/>
<path d="M115.847 14.4554V20.862H117.253H118.66V19.8763V18.8907L121.143 16.1802L123.625 13.4698L123.708 17.1659V20.862H125.114H126.521V14.4554V8.04883H125.114H123.708V9.03445V10.0201L121.225 12.7306L118.743 15.441L118.66 11.7449V8.04883H117.253H115.847V14.4554Z" fill="#333333"/>
<path d="M58.833 15.3598V16.4275H61.8119H64.7908V15.3598V14.292H61.8119H58.833V15.3598Z" fill="#333333"/>
<path d="M80.927 26.694C79.6858 27.3511 79.1065 28.8295 79.4375 30.5543C79.6858 31.6221 79.8513 31.9506 80.7615 32.4435C82.0027 33.1827 83.8231 32.772 84.5679 31.54C85.0643 30.7186 85.0643 28.6652 84.5679 27.7617C83.8231 26.4476 82.2509 26.0369 80.927 26.694ZM83.3266 27.4332C83.9059 27.926 84.0714 28.501 84.0714 29.4866C84.0714 31.0472 83.3267 31.9507 82.2509 31.9507C81.4235 31.9507 80.7615 31.54 80.4305 30.7186C79.934 29.4866 80.265 27.8439 81.0925 27.2689C81.7545 26.9404 82.8302 27.0225 83.3266 27.4332Z" fill="#333333"/>
<path d="M117.336 26.7759C117.336 27.1045 117.17 27.2687 116.508 27.433C115.267 27.7615 114.771 28.4186 114.771 29.5685C114.771 30.7184 115.267 31.3755 116.508 31.704C117.253 31.8683 117.336 32.0326 117.336 32.3611C117.336 32.6897 117.418 32.7718 117.667 32.7718C117.915 32.7718 117.998 32.6075 117.998 32.3611C117.998 32.0326 118.163 31.8683 118.742 31.704C119.901 31.3755 120.397 30.7184 120.397 29.5685C120.397 28.4186 119.901 27.7615 118.742 27.433C118.163 27.2687 117.998 27.1045 117.998 26.7759C117.998 26.4474 117.915 26.3652 117.667 26.3652C117.501 26.3652 117.336 26.4474 117.336 26.7759ZM117.336 29.5685C117.336 31.1291 117.336 31.1291 116.839 31.1291C116.591 31.1291 116.177 30.9648 115.929 30.6363C114.936 29.6507 115.598 28.0079 117.005 28.0079C117.336 28.0079 117.336 28.1722 117.336 29.5685ZM119.322 28.4186C119.653 28.7472 119.818 29.0757 119.818 29.4864C119.818 30.2256 119.156 31.047 118.494 31.047C118.163 31.047 118.163 30.9648 118.163 29.4864C118.163 28.0079 118.163 27.9258 118.494 27.9258C118.66 28.0079 119.073 28.1722 119.322 28.4186Z" fill="#333333"/>
<path d="M123.293 26.6938C122.714 27.1866 121.059 32.4433 121.473 32.6075C121.887 32.8539 121.969 32.7718 122.3 31.704L122.631 30.6363H124.121H125.61L125.941 31.704C126.272 32.8539 126.355 32.9361 126.769 32.6075C126.934 32.5254 126.851 31.9505 126.189 29.7328C125.279 26.9402 124.948 26.3652 124.121 26.3652C123.873 26.3652 123.542 26.5295 123.293 26.6938ZM124.865 28.3365C125.114 28.9936 125.279 29.5685 125.279 29.6507C125.279 29.7328 124.783 29.8149 124.121 29.8149C123.459 29.8149 122.88 29.7328 122.88 29.7328C122.88 29.6507 123.045 29.0757 123.293 28.3365C123.624 27.1866 123.707 27.0223 124.121 27.1045C124.369 27.1866 124.617 27.433 124.865 28.3365Z" fill="#333333"/>
<path d="M129.748 26.53C129.086 26.6942 128.589 27.1871 128.176 27.9263C127.762 28.6655 127.845 30.6367 128.176 31.4581C128.755 32.5259 130.493 33.0187 132.23 32.608C132.727 32.4437 132.892 32.3616 132.809 32.1152C132.727 31.9509 132.727 31.7866 132.727 31.7866C132.727 31.7866 132.479 31.7866 132.23 31.8688C131.982 31.9509 131.32 32.033 130.824 32.033C130.079 32.033 129.748 31.9509 129.334 31.5402C128.838 31.1296 128.755 30.8831 128.672 29.9797C128.589 28.8298 128.92 27.762 129.665 27.3513C130.079 27.1049 130.41 27.0228 131.403 27.187C132.396 27.2692 132.727 27.2692 132.809 27.0228C133.058 26.4478 130.906 26.2014 129.748 26.53Z" fill="#333333"/>
<path d="M135.954 26.6938C135.375 27.1866 133.72 32.4433 134.134 32.6075C134.548 32.8539 134.63 32.7718 134.961 31.704L135.292 30.6363H136.782H138.271L138.602 31.704C138.933 32.8539 139.016 32.9361 139.43 32.6075C139.595 32.5254 139.513 31.9505 138.851 29.7328C137.94 26.9402 137.609 26.3652 136.782 26.3652C136.534 26.3652 136.12 26.5295 135.954 26.6938ZM137.527 28.3365C137.775 28.9936 137.94 29.5685 137.94 29.6507C137.94 29.7328 137.444 29.8149 136.782 29.8149C136.12 29.8149 135.541 29.7328 135.541 29.7328C135.541 29.6507 135.706 29.0757 135.954 28.3365C136.285 27.1866 136.368 27.0223 136.782 27.1045C137.03 27.1866 137.196 27.433 137.527 28.3365Z" fill="#333333"/>
<path d="M149.111 26.6938C148.531 27.1866 146.877 32.4433 147.29 32.6075C147.704 32.8539 147.787 32.7718 148.118 31.704L148.449 30.6363H149.938H151.428L151.759 31.704C152.09 32.8539 152.172 32.9361 152.586 32.6075C152.752 32.5254 152.669 31.9505 152.007 29.7328C151.097 26.9402 150.766 26.3652 149.938 26.3652C149.69 26.3652 149.359 26.5295 149.111 26.6938ZM150.683 28.3365C150.931 28.9936 151.097 29.5685 151.097 29.6507C151.097 29.7328 150.6 29.8149 149.938 29.8149C149.276 29.8149 148.697 29.7328 148.697 29.7328C148.697 29.6507 148.862 29.0757 149.111 28.3365C149.442 27.1866 149.524 27.0223 149.938 27.1045C150.186 27.1866 150.435 27.433 150.683 28.3365Z" fill="#333333"/>
<path d="M47.166 29.5683C47.166 32.4431 47.166 32.6073 47.497 32.6073C47.828 32.6073 47.828 32.4431 47.9107 30.3897L47.9935 28.172L48.7382 29.3219C49.3175 30.3897 49.4829 30.5539 49.9794 30.5539C50.4759 30.5539 50.6414 30.3897 51.0551 29.6504C52.2136 27.8435 52.1309 27.7613 52.1309 30.3075C52.1309 32.4431 52.1309 32.5252 52.4619 32.5252C52.7928 32.5252 52.9583 32.4431 52.9583 29.5683C52.9583 26.5293 52.9583 26.5293 52.5446 26.5293C52.2136 26.5293 51.8826 26.8578 51.2206 28.172C50.7242 29.0755 50.1449 29.7326 50.0622 29.7326C49.8967 29.7326 49.4002 29.0755 48.9037 28.172C48.2417 27.1042 47.9107 26.6114 47.5798 26.5293C47.166 26.5293 47.166 26.5293 47.166 29.5683Z" fill="#333333"/>
<path d="M54.6133 29.5684C54.6133 32.4432 54.6133 32.6074 54.9443 32.6074C55.1925 32.6074 55.2753 32.4432 55.2753 32.1968C55.2753 31.9503 55.8545 31.2111 56.8475 30.1434L58.4197 28.5007V30.554C58.4197 32.5253 58.4197 32.6074 58.7507 32.6074C59.0816 32.6074 59.0816 32.4432 59.0816 29.5684C59.0816 26.6937 59.0816 26.5294 58.7507 26.5294C58.5024 26.5294 58.4197 26.6937 58.4197 26.9401C58.4197 27.1865 57.8404 27.9257 56.9302 29.0756L55.4408 30.7183L55.358 28.5828C55.358 26.6115 55.2753 26.4473 54.9443 26.4473C54.6133 26.5294 54.6133 26.6937 54.6133 29.5684Z" fill="#333333"/>
<path d="M60.9021 29.5692C60.9021 32.4439 60.9021 32.6082 61.2331 32.6082C61.5641 32.6082 61.5641 32.4439 61.5641 31.4583V30.3084H62.7225C63.9637 30.3084 64.4602 30.062 64.874 29.2406C65.1222 28.7478 65.1222 28.255 64.874 27.5979C64.543 26.8587 63.7982 26.6123 62.226 26.6123H60.8193V29.5692H60.9021ZM63.9637 27.4337C64.1292 27.5158 64.212 27.9265 64.212 28.3371C64.212 29.2406 63.7155 29.5692 62.4743 29.5692H61.5641V28.255V26.9408L62.6398 27.023C63.219 27.1873 63.881 27.3515 63.9637 27.4337Z" fill="#333333"/>
<path d="M68.3496 29.5685C68.3496 32.4433 68.3496 32.6075 68.6806 32.6075C69.0116 32.6075 69.0116 32.4433 69.0116 31.2112V29.8149H69.5081C69.9218 29.8149 70.2528 30.1435 71.163 31.2934C72.2387 32.6075 72.4042 32.7718 72.6525 32.4433C72.9007 32.1969 72.818 32.0326 71.9078 30.8827C71.3285 30.2256 70.832 29.5685 70.7493 29.4042C70.5838 29.1578 72.0732 27.1045 72.4042 27.1045C72.5697 27.1045 72.6525 26.9402 72.6525 26.7759C72.6525 26.2831 71.9905 26.2831 71.494 26.858C71.2458 27.1045 70.832 27.6794 70.501 28.1722C70.0873 28.8293 69.7563 28.9936 69.4253 28.9936C69.0116 28.9936 68.9288 28.9936 68.9288 27.6794C68.9288 26.5295 68.9288 26.3652 68.5979 26.3652C68.3496 26.5295 68.3496 26.6938 68.3496 29.5685Z" fill="#333333"/>
<path d="M74.0593 29.5692C74.0593 32.4439 74.0593 32.6082 74.3903 32.6082C74.7213 32.6082 74.7213 32.4439 74.7213 31.4583V30.3084H75.8797C77.121 30.3084 77.6175 30.062 78.0312 29.2406C78.2794 28.7478 78.2794 28.255 78.0312 27.5979C77.7002 26.8587 76.9555 26.6123 75.3833 26.6123H73.9766V29.5692H74.0593ZM77.2037 27.4337C77.3692 27.5158 77.452 27.9265 77.452 28.3371C77.452 29.2406 76.9555 29.5692 75.7143 29.5692H74.804V28.255V26.9408L75.8797 27.023C76.459 27.1873 77.0382 27.3515 77.2037 27.4337Z" fill="#333333"/>
<path d="M86.5537 29.5683V32.6073H88.1259C89.2016 32.6073 89.9464 32.5252 90.2773 32.3609C91.2703 31.8681 91.4358 30.2254 90.4428 29.6504C90.1119 29.404 90.1119 29.404 90.4428 28.9934C90.9393 28.4184 90.8566 27.8435 90.3601 27.1864C89.9464 26.6936 89.7809 26.6936 88.2087 26.6114L86.5537 26.5293V29.5683ZM89.7809 27.6792C90.1119 28.172 90.1119 28.3363 89.6981 28.747C89.4499 28.9934 89.1189 29.0755 88.2914 29.0755H87.2984V28.172V27.2685H88.3742C89.2844 27.2685 89.5326 27.3507 89.7809 27.6792ZM89.9464 30.1433C90.1118 30.3075 90.2773 30.6361 90.2773 30.8825C90.2773 31.6217 89.7809 31.8681 88.4569 31.8681H87.2984V30.8825V29.8969H88.4569C89.2016 29.8147 89.6981 29.8969 89.9464 30.1433Z" fill="#333333"/>
<path d="M93.3391 27.1045C93.2563 27.433 93.1736 28.4186 93.0081 29.3221C92.8426 30.8827 92.4288 31.7862 92.0978 31.7862C91.8496 31.7862 91.8496 32.279 92.1806 32.4433C92.3461 32.6075 92.5116 32.5254 92.8426 32.3611C93.4218 31.8683 93.5873 31.3755 93.8355 29.8149C94.1665 26.9402 94.0838 27.1866 95.2422 27.1866H96.2352V29.8149C96.2352 32.3611 96.2352 32.4433 96.5662 32.4433C96.8972 32.4433 96.8972 32.279 96.8972 29.4042V26.3652H95.1595H93.4218L93.3391 27.1045Z" fill="#333333"/>
<path d="M98.6348 29.5683C98.6348 32.4431 98.6348 32.6073 98.9658 32.6073C99.214 32.6073 99.2967 32.4431 99.2967 32.1966C99.2967 31.9502 99.876 31.211 100.869 30.1433L102.441 28.5006V30.5539C102.441 32.5252 102.441 32.6073 102.772 32.6073C103.103 32.6073 103.103 32.4431 103.103 29.5683C103.103 26.6936 103.103 26.5293 102.772 26.5293C102.524 26.5293 102.441 26.6936 102.441 26.94C102.441 27.1864 101.862 27.9256 100.952 29.0755L99.3795 30.8003L99.2967 28.6648C99.2967 26.6936 99.214 26.5293 98.883 26.5293C98.6348 26.5293 98.6348 26.6936 98.6348 29.5683Z" fill="#333333"/>
<path d="M106.744 29.5683C106.744 32.4431 106.744 32.6073 107.075 32.6073C107.323 32.6073 107.406 32.4431 107.406 32.1966C107.406 31.9502 107.985 31.211 108.978 30.1433L110.551 28.5006V30.5539C110.551 32.5252 110.551 32.6073 110.882 32.6073C111.213 32.6073 111.212 32.4431 111.212 29.5683C111.212 26.6936 111.213 26.5293 110.882 26.5293C110.633 26.5293 110.551 26.6936 110.551 26.94C110.551 27.1864 109.971 27.9256 109.061 29.0755L107.489 30.8003L107.406 28.6648C107.406 26.6936 107.323 26.5293 106.992 26.5293C106.827 26.5293 106.744 26.6936 106.744 29.5683Z" fill="#333333"/>
<path d="M142.161 26.9408C142.161 27.1872 141.995 28.0086 141.912 28.8299C141.664 30.6369 141.333 31.6225 140.754 31.7868C140.423 31.8689 140.423 32.0332 140.423 32.7724C140.423 33.5116 140.506 33.6759 140.754 33.6759C141.085 33.6759 141.085 33.5116 141.085 33.101V32.526H143.236H145.388V33.101C145.388 33.5116 145.47 33.6759 145.719 33.6759C146.05 33.6759 146.05 33.5116 146.05 32.7724C146.05 32.1153 145.967 31.8689 145.801 31.8689C145.553 31.8689 145.553 31.4582 145.553 29.2406V26.6123H143.898C142.326 26.5301 142.243 26.5301 142.161 26.9408ZM144.808 29.5691V31.8689H143.319H141.83L142.078 31.3761C142.243 31.1297 142.409 30.2262 142.574 29.487C142.905 27.1051 142.823 27.2693 143.898 27.2693H144.808V29.5691Z" fill="#333333"/>
<path d="M10.1777 36.6324L35.8294 11.5811V36.6324H10.1777Z" fill="#FFAE01"/>
</g>
<defs>
<clipPath id="clip0_1_1175">
<rect width="153" height="40" fill="white"/>
</clipPath>
</defs>
</svg>
